<?xml version="1.0" encoding="UTF-8"?><svg id="Ebene_1" xmlns="http://www.w3.org/2000/svg" width="261.5" height="294.68" xmlns:xlink="http://www.w3.org/1999/xlink" viewBox="0 0 261.5 294.68"><defs><linearGradient id="Unbenannter_Verlauf_2" x1="-536.88" y1="526.21" x2="-537.62" y2="527.22" gradientTransform="translate(13993.35 20522.04) scale(25.82 -38.71)" gradientUnits="userSpaceOnUse"><stop offset="0" stop-color="#ffbeb6"/><stop offset=".59" stop-color="#f7ada7"/><stop offset="1" stop-color="#f2a19c"/></linearGradient><linearGradient id="Unbenannter_Verlauf_6" x1="-541.43" y1="527.78" x2="-540.43" y2="527.78" gradientTransform="translate(18603.2 19464.26) scale(34.11 -36.74)" gradientUnits="userSpaceOnUse"><stop offset="0" stop-color="#ffbeb6"/><stop offset="1" stop-color="#f2a19c"/></linearGradient><linearGradient id="Unbenannter_Verlauf_6-2" x1="-545.2" y1="527.91" x2="-544.2" y2="527.91" gradientTransform="translate(33717.31 20156.33) scale(61.64 -37.99)" xlink:href="#Unbenannter_Verlauf_6"/><linearGradient id="Unbenannter_Verlauf_6-3" x1="-522.81" y1="517.03" x2="-521.81" y2="517.03" gradientTransform="translate(5778.12 5270.25) scale(10.64 -10.07)" xlink:href="#Unbenannter_Verlauf_6"/><linearGradient id="Unbenannter_Verlauf_6-4" x1="-539.07" y1="527.14" x2="-539.77" y2="527.72" gradientTransform="translate(16395.99 19441.51) scale(30.19 -36.65)" xlink:href="#Unbenannter_Verlauf_6"/><linearGradient id="Unbenannter_Verlauf_6-5" x1="-517.6" y1="513.92" x2="-517.26" y2="512.29" gradientTransform="translate(4937.49 6659.88) scale(9.44 -12.67)" xlink:href="#Unbenannter_Verlauf_6"/><linearGradient id="Unbenannter_Verlauf_7" x1="-528.42" y1="520.73" x2="-527.42" y2="520.73" gradientTransform="translate(7108.98 7026.64) scale(13.42 -13.42)" gradientUnits="userSpaceOnUse"><stop offset="0" stop-color="#23286b"/><stop offset=".35" stop-color="#1e2361"/><stop offset="1" stop-color="#151a4f"/></linearGradient></defs><g id="Man_and_woman_holding_together_a_checkmark"><g id="man"><path id="L_hand" d="M81.2,93s9.18-5.03,9.85-12.1,.62-6-.03-9.02,.7-3.58,2.52-1.38,.18,5.8,1.5,5.57,2.92-.2,4.67-5.1,2.85-6.45,4.3-5.33,5.26,7.39,1.18,13.2-5.9,3.18-9.37,7.98-5.8,13.33-9.03,17.18h0l-5.61-11" style="fill:url(#Unbenannter_Verlauf_2);"/><path id="L_hand-2" d="M170.83,78.81s-11.37-2.66-14.2-10.06-2.46-6.26-2.66-9.7-1.82-3.63-3.12-.73,1.54,6.28,.05,6.44-3.2,.66-6.54-4.09-4.98-6.08-6.21-4.44-3.44,9.52,2.67,14.53,7.29,1.65,12.45,5.77,10.21,12.59,14.83,15.76h0l2.73-13.49" style="fill:url(#Unbenannter_Verlauf_6);"/><path id="tick" d="M60.43,26.11l42.44,69.1h35.09L198.35,0h-40.8l-40.26,65.55-24.76-39.44H60.43Z" style="fill:#8ad5a9;"/><path id="R_shoe" d="M211.91,271.95l8.15,22.72h-57.5s2.95-5.69,12.78-9.9,19-12.82,19-12.82h17.58" style="fill:#8ad5a9;"/><path id="L_shoe" d="M253.01,271.94l8.15,22.72h-57.5s2.95-5.69,12.78-9.9,19-12.82,19-12.82h17.58" style="fill:#d4f2e4;"/><path id="R_trousers" d="M235.88,140.3c-6.93,30.42-7.47,26.15-6.4,47.49s-2.4,14.14-3.47,36.55,.3,33.47-14.1,47.62h-17.57s-1.43-68.33-1.11-87.65c.22-13.51,4.47-27.2,6.92-38.39l2.69-11.21c2.59-.14,5.12-.79,7.46-1.89,6.1,2.04,16.86,2.48,26.57,2.36-.25,1.66-.58,3.37-.98,5.12Z" style="fill:#f8af38;"/><path id="L_trousers" d="M253.01,271.94h-17.58s-27.71-66.77-29.09-81.28c-1.09-11.53-.62-24.81,.59-36.92l2.42-21.26c7.96,3.15,25.95,2.93,37.57,2.4-.32,6.61-1.55,13.15-3.66,19.43-11.06,33.18-3.46,31.61,.12,41.65,3.6,10.04,5.53,16.17,4.71,25.66s3.31,6.98,5.53,19.24-.61,31.08-.61,31.08Z" style="fill:#fcc979;"/><path id="R_sleeve" d="M216.46,66.66s-2.08,11.23-17.7,15.09-29.78-3.68-29.78-3.68l-9.96,25.29s4.67,4.93,14.22,4.38,14.3-1.91,18.52-.81,23.53,1.84,27.57-11.03,7.75-32.24,7.75-32.24c0,0-4.52,4.46-10.64,3" style="fill:#012e3c;"/><path id="L_hand-3" d="M172.24,100.94s-24.26-3.95-27.77-7.08-3.01-5.01-7.4-7.27-7.52-4.01-9.15-5.39-2.88,2.01,.38,5.26,8.55,6.36,5.04,8.74c0,0-8.6-.04-22.7,.03-.71,0,7.26,5.77,16.78,5.9s9.65-2.51,15.29,1.88,20.27,15.86,20.27,15.86l8.45-15.14" style="fill:url(#Unbenannter_Verlauf_6-2);"/><path id="texture" d="M227.06,137.13c-.03-.07-.11-.1-.18-.07s-.1,.11-.07,.18c.03,.07,.11,.1,.18,.07,0,0,0,0,0,0h0c.07-.03,.1-.11,.07-.18Zm-13.98-.04c-.07-.03-.14,0-.17,.08,0,0,0,0,0,0-.03,.06,0,.14,.05,.17h.02c.07,.04,.15,.01,.19-.05,.03-.07,0-.15-.06-.19,0,0-.02,0-.02,0h0Zm6.95-.39c-.08,0-.14,.06-.14,.14,0,.08,.06,.14,.14,.14h0c.08,0,.14-.06,.14-.14,0-.08-.06-.14-.14-.14h0Zm24.94,1.07c-.1-.1-.27-.09-.36,.02h0s0,0,0,0c-.09,.1-.08,.26,.02,.36,0,0,0,0,0,0h0c.1,.1,.27,.09,.36-.02h0s0,0,0,0c.09-.1,.08-.26-.02-.36,0,0,0,0,0,0h0Zm-19.04,15.81c-.14,0-.25,.13-.24,.27,0,.14,.12,.24,.26,.24,0,0,0,0,0,0h.01c.14,0,.25-.13,.24-.27-.01-.14-.13-.25-.27-.23,0,0,0,0,0,0h0Zm-.44-6.25c-.14,.01-.25,.14-.23,.28h0c.01,.14,.14,.25,.28,.24,.14-.01,.25-.13,.24-.27-.02-.14-.14-.25-.28-.25h0Zm-.43-6.25c-.14,.02-.25,.14-.24,.28,0,.14,.12,.24,.26,.24,0,0,0,0,0,0h.01c.14,0,.25-.12,.24-.27h0s0,0,0,0c0-.14-.13-.25-.27-.24h0Zm13.17,6.26c-.06-.13-.22-.19-.35-.13-.13,.06-.19,.22-.13,.35,.06,.13,.22,.19,.35,.13h0c.13-.06,.18-.22,.12-.35h0Zm-2.8-5.6c-.06-.13-.22-.19-.35-.13-.13,.06-.19,.22-.13,.35,.06,.13,.22,.19,.35,.13h0c.13-.06,.18-.22,.12-.35h0Zm-2.8-5.6c-.07-.13-.23-.18-.36-.11-.13,.06-.18,.22-.12,.35,.06,.13,.22,.18,.35,.12h0c.13-.07,.18-.22,.12-.36h0Zm-18.45,12.96c-.13-.05-.27,.02-.32,.15v.02c-.05,.13,.02,.28,.15,.32h0c.14,.05,.28-.03,.33-.16,.04-.14-.04-.28-.17-.33h0Zm1.99-5.93c-.13-.05-.28,.02-.33,.15,0,0,0,0,0,0h0c-.05,.14,.03,.28,.16,.33,.14,.04,.28-.04,.33-.17,.04-.13-.03-.28-.16-.32h0Zm1.98-5.94c-.14-.05-.28,.03-.33,.16-.05,.13,.02,.28,.16,.33,0,0,0,0,0,0h.01c.13,.05,.27-.02,.32-.15,0,0,0,0,0,0h0c.05-.15-.03-.29-.16-.34h0Zm25.44,7.27c-.07-.11-.21-.14-.32-.07s-.14,.21-.07,.32,.21,.14,.32,.07c0,0,0,0,0,0,.11-.07,.14-.21,.07-.32Zm-2.96-4.74c-.07-.11-.21-.14-.32-.07s-.14,.21-.07,.32,.21,.14,.32,.07c0,0,0,0,0,0h0c.11-.06,.14-.2,.08-.31,0,0,0,0,0,0h0s0,0,0,0Zm-20.38,8.51c-.12-.03-.25,.05-.28,.17,0,0,0,0,0,0h0c-.03,.12,.04,.24,.16,.27h0s.01,0,.01,0c.12,.03,.25-.05,.28-.17,.03-.12-.05-.25-.17-.28h0Zm1.26-5.44c-.12-.03-.25,.05-.28,.17h0c-.03,.12,.04,.24,.16,.27h0s.01,0,.01,0c.12,.03,.25-.05,.28-.17,.03-.12-.04-.25-.17-.28h0Zm1.26-5.44c-.12-.03-.25,.05-.28,.17,0,0,0,0,0,0h0c-.03,.12,.03,.24,.15,.27h.02c.12,.03,.25-.04,.28-.17,0,0,0,0,0,0h0c.03-.12-.05-.24-.17-.28h0Zm9.37,8.42c-.12,.03-.21,.15-.19,.27,.02,.12,.14,.21,.26,.19,0,0,0,0,0,0,.13-.02,.22-.14,.2-.26-.02-.13-.14-.22-.27-.2h0Zm-.92-5.51c-.12,.03-.21,.15-.19,.27,.02,.12,.14,.21,.26,.19,0,0,0,0,0,0,.12-.02,.21-.13,.19-.25,0,0,0,0,0-.01-.02-.13-.13-.22-.26-.2h0s0,0,0,0Zm-19.78,.92c-.1-.07-.25-.05-.33,.05-.07,.1-.05,.25,.05,.32h0c.1,.07,.23,.06,.31-.04h0c.08-.11,.06-.25-.04-.33,0,0,0,0,0,0h0Zm3.24-4.55c-.11-.07-.25-.05-.33,.06-.07,.11-.05,.25,.06,.33,.11,.07,.25,.05,.33-.06,.07-.1,.05-.24-.05-.32h-.01Zm15.4-1.07c-.07,0-.14,.06-.14,.13,0,.07,.06,.14,.13,.14,.07,0,.14-.06,.14-.13,0-.07-.06-.14-.13-.14h0Zm-.2,1.13c-.08-.01-.16,.04-.18,.12-.02,.08,.03,.16,.11,.18,.08,.02,.16-.02,.18-.1,0,0,0,0,0,0,0,0,0-.01,0-.02,.02-.08-.03-.17-.11-.19,0,0,0,0,0,0h0Zm13.46,13.8c-.14,.02-.25,.15-.23,.3,.02,.14,.16,.24,.31,.22,.14-.02,.24-.16,.23-.3-.02-.15-.16-.24-.31-.22Zm-1.01-6.38c-.14,.02-.24,.16-.22,.31,.02,.14,.16,.24,.31,.22,.14-.02,.24-.16,.22-.3h0c-.02-.15-.16-.24-.31-.22Zm-1-6.37c-.15,.02-.25,.15-.23,.3,.02,.15,.15,.25,.3,.23h.01c.14-.02,.25-.15,.23-.3-.02-.14-.16-.24-.31-.22h0Zm-24.21,6.41c-.12-.09-.29-.06-.38,.05s-.06,.29,.05,.38c.12,.08,.29,.06,.38-.06,.08-.12,.06-.28-.06-.37h0Zm3.8-5.21c-.12-.09-.29-.06-.37,.06-.09,.12-.06,.29,.06,.37h0c.12,.09,.29,.06,.37-.06,.09-.12,.06-.29-.06-.37h0Zm9.83,8.14c-.14-.03-.28,.05-.32,.19,0,0,0,0,0,0h0c-.04,.14,.05,.28,.19,.32,.14,.03,.29-.06,.33-.2,.04-.15-.05-.29-.2-.33,0,0,0,0,0,0h0Zm1.51-6.26c-.14-.04-.28,.05-.31,.18v.02c-.04,.14,.05,.28,.19,.32h0c.14,.04,.29-.05,.33-.2,0,0,0,0,0,0h0c.04-.14-.05-.28-.18-.31h-.02Zm2.39,8.35c-.15-.03-.29,.06-.32,.21s.06,.29,.21,.32c.15,.03,.29-.06,.32-.21,.03-.15-.06-.29-.21-.32,0,0,0,0,0,0Zm1.25-6.31c-.15-.02-.29,.07-.32,.22-.02,.14,.07,.28,.21,.31,.15,.03,.29-.06,.32-.21,.03-.14-.07-.28-.21-.32Zm1.24-6.3c-.14-.03-.28,.07-.31,.21-.03,.14,.07,.28,.21,.31h0c.15,.03,.29-.06,.32-.21,.02-.15-.07-.28-.22-.31h0Zm9.52,2.82c-.14,.03-.24,.17-.21,.32,.03,.14,.18,.23,.32,.2,.14-.03,.24-.16,.21-.3h0c-.03-.14-.17-.24-.32-.21h0Zm-22.71,1.77c-.12-.08-.28-.05-.36,.07,0,0,0,0,0,0h0c-.08,.13-.05,.29,.07,.38,.12,.08,.29,.05,.37-.07,.08-.12,.05-.29-.07-.37,0,0,0,0,0,0h0s0,0,0,0Zm3.56-5.35c-.12-.08-.28-.05-.36,.07,0,0,0,0,0,0h0c-.08,.13-.05,.29,.07,.38,.12,.08,.29,.05,.37-.07,.08-.12,.05-.29-.07-.37h0s0,0,0,0h0Zm7.11,2.32c-.09-.05-.21-.01-.26,.08,0,0,0,.01,0,.02-.04,.1,0,.22,.1,.26,.1,.04,.22,0,.26-.1,.04-.1,0-.22-.1-.26h0Zm10.18-.44c-.11,0-.2,.08-.21,.19h0c0,.11,.09,.2,.2,.2,.11,0,.2-.08,.2-.19,0,0,0,0,0,0,0-.1-.08-.19-.18-.2h-.02Z" style="fill:#fff; isolation:isolate; opacity:.86;"/><path id="sweater" d="M227,63.09c7.34,5.09,13.55,11.65,18.21,19.26,7.92,12.82,5.8,17.51,10.09,25.06s10.25,16.85,2.26,26.79c0,0-39.14,3.39-49.66-2.4l8.57-65.15s4.96,.57,10.53-3.57Z" style="fill:#012e3c;"/><path id="R_sleeve-2" d="M216.47,66.66s-5.46,14.46-12.58,23.93-10.11,9.8-19.89,6.93-11.65-4.05-11.65-4.05l-13.94,36.2s7.46,7.58,18.39,5.25,14.55-2.33,19.93-.84,18.21,1.73,25.68-14.74,9.66-31.28,5.17-55.96h0" style="fill:#365a65;"/><path id="neck" d="M216.63,58.22c.58,2.79,.53,5.68-.16,8.45,0,0,4.79,2.52,10.64-3,0,0-1.22-3.17-2.11-6.5h0l-8.36,1.05" style="fill:url(#Unbenannter_Verlauf_6-3);"/><path id="face" d="M209.49,38.61c-.53,1.93-1.46,3.73-2.73,5.27-1.85,1.95-3.32,3.12,.68,5.27,0,0,2.34,13.18,16.88,8.49,0,0,11.13-4.68,9.47-9.27s-8.88-11.03-8.88-11.03l-8.88-2.54-6.54,3.81Z" style="fill:#ffbeb6;"/><path id="lips" d="M207.6,52.16c.54,1.22,1.97,1.77,3.19,1.22,.44-.2,.81-.52,1.07-.93,.2-.31-.25-.67-.45-.36-.5,.88-1.62,1.19-2.51,.69-.33-.19-.6-.48-.76-.83-.16-.33-.7-.13-.54,.21h0Z" style="fill:#1c2868;"/><path id="hair" d="M204.17,23.22c-1.38,9.4,2.4,13.76,6.72,15.76-5.95-1.97-9.45-8.12-8.11-14.24,.06-.31-.41-.44-.47-.13-1.52,6.85,2.8,13.65,9.65,15.17,.7,.16,1.42,.25,2.14,.29,2.24,.51,4.55,.66,6.84,.46,0,0,.98,4.33,3.05,6.04s4.05-.81,5.23,1.89-1.35,4.15-4.05,4.6-2.34,3.96-2.34,3.96c2.07,.9,8.83-.27,13.79-4.96,3.09-3.12,5.22-7.06,6.13-11.35l-38.57-17.49Z" style="fill:#23286b;"/></g><g id="woman"><path id="L_sleeve" d="M87.77,110.76s-1.57,4.1-8.92,3.98-9.52,1.45-15.9,4.46c-2.89,1.36-6.03,2.12-9.22,2.22-5.22,.12-10.66-1.87-13.8-8.36-4.83-10-13.43-29.43-14.58-32.01,2.65-2.99,5.55-5.73,8.69-8.2h0c3.05,2.78,5.5,3.22,7.09,3.03,.77,.88,1.45,1.84,2.03,2.86,.1,.2,.22,.4,.32,.6,0,0,6.93,20.46,18.86,19.01,7.26-.91,14.29-3.15,20.73-6.63l4.7,19.04Z" style="fill:#f8af38;"/><path id="R_hand" d="M85.31,99.63s10.13-2.64,12.5-9.34,2.06-5.67,2.16-8.76,1.55-3.3,2.78-.72-1.24,5.67,.1,5.77,2.69-1.7,5.88-4.9c3.67-3.69,4.22-4.48,5.35-3.03s3.3,8.45-2.06,13.09-5.85,2.24-10.38,6.05-7.11,12.95-11.18,15.9-2.4-2.03-2.4-2.03l-2.76-12.03" style="fill:url(#Unbenannter_Verlauf_6-4);"/><path id="neck-2" d="M43.47,67.17c-.46,2.62-.55,5.3-.25,7.95,0,0-3.56,2.85-9.2-2.28l2.85-9.61,6.59,3.94" style="fill:url(#Unbenannter_Verlauf_6-5);"/><path id="face-2" d="M51.4,48.29c.03,.06,.05,.11,.06,.14,0,0,0,.02,.01,.03,.11,.26,.22,.52,.32,.8,1.1,2.97,3.87,4.82,4.06,5.67s-1.32,1.79-2.1,2.05-.82,4.4-3.5,7.4c-2.52,2.82-7.09,3.6-10.45,2.64-2.68-6.28-3.56-10.95,2.1-15.35,6.18-4.81,5.95-7.92,5.95-7.92,1.51,1.24,2.71,2.79,3.54,4.56Z" style="fill:#ffbeb6;"/><circle id="hair-2" cx="23.2" cy="37.45" r="6.71" style="fill:url(#Unbenannter_Verlauf_7);"/><path id="eye" d="M49.59,51.2c1.07,.79,2.58,.56,3.37-.51,.29-.39,.45-.85,.47-1.34,.02-.37-.55-.46-.57-.09,0,1.02-.83,1.84-1.84,1.83-.38,0-.75-.12-1.07-.34-.3-.21-.67,.24-.36,.45h0Z" style="fill:#1c2868;"/><path id="L_shoe-2" d="M39.91,274.69h15.46s8.07,7.58,16.72,11.28,11.24,8.71,11.24,8.71H32.73l7.17-19.99" style="fill:#d4f2e4;"/><path id="R_shoe-2" d="M7.17,274.69H23.62s7.09,7.58,15.74,11.28,11.24,8.71,11.24,8.71H0l7.17-19.99" style="fill:#8ad5a9;"/><path id="L_trousers-2" d="M55.38,274.69h-15.47c-11.43-11.23-9.23-29.96-10.07-47.74s.41-10.72-1.84-27.52c-2.83-21.19-1.91-17.55-7.4-41.68-1.42-5.82-2.12-11.79-2.08-17.78,.06-.56,.11-1.06,.16-1.52,1.49,.1,3.07,.17,4.7,.18,8,.05,15.96-1.2,23.56-3.7,.95,8.55,2.7,24.47,2.74,24.76,.6,4.02,.93,6.41,2.15,13.36,.1,.56,.18,1.11,.24,1.68,1.01,9.79,2.36,25.36,2.57,38.65,.26,15.32,.73,61.31,.73,61.31Z" style="fill:#012e3c;"/><path id="Pfad_397" d="M52.73,201.94c-1.26,12.3-29.12,72.74-29.12,72.74H7.17s.57-19.79,2.57-30.19,5.78-8.27,5.02-16.31,1.01-13.24,4.28-21.74c3.26-8.52,10.81-12.53,.75-40.66-3.29-9.2-5.45-20.84-4.85-27.68,2.8,.34,5.61,.51,8.43,.52,8.46,.06,16.88-1.34,24.86-4.14l2.43,24.18c.16,1.51,.33,2.82,.54,4.28,1.76,12.07,2.77,26.71,1.52,39Z" style="fill:#365a65;"/><path id="texture-2" d="M17.22,144.85c-.02-.06-.09-.09-.15-.06s-.09,.09-.06,.15,.09,.09,.15,.06c0,0,0,0,0,0h0c.06-.02,.08-.09,.06-.15,0,0,0,0,0,0Zm-1.07-2.57c-.02-.06-.08-.09-.14-.07h-.01c-.06,.03-.09,.09-.07,.15,.03,.06,.1,.08,.16,.06,.06-.02,.08-.09,.06-.15,0,0,0,0,0,0h0Zm-1.07-2.57c-.03-.06-.09-.09-.16-.07-.06,.03-.08,.1-.06,.16,.02,.06,.09,.08,.15,.06h0c.06-.02,.09-.09,.07-.15h0Zm6.09,.62s-.11-.04-.16,0c-.04,.04-.04,.11,0,.16,.04,.04,.11,.04,.16,0h0s.05-.11,0-.15c0,0,0,0,0,0h0Zm11.16,5.05c-.09-.08-.22-.07-.3,.01h0c-.08,.09-.07,.23,.02,.31h0c.09,.08,.22,.07,.3-.01h0c.08-.09,.07-.23-.02-.31Zm-3.99-3.47c-.09-.08-.22-.07-.3,.02h0c-.09,.09-.09,.23,0,.31s.23,.09,.31,0c0,0,.01-.01,.02-.02h0c.08-.09,.06-.23-.03-.31h0Zm-12.08,16.81c-.12,0-.21,.11-.21,.23,0,.12,.1,.21,.22,.2h0s.01,0,.01,0c.12,0,.21-.11,.21-.23,0-.12-.11-.21-.23-.2,0,0,0,0,0,0Zm-.38-5.27c-.12,0-.21,.11-.2,.23,0,0,0,0,0,0h0c0,.12,.11,.21,.23,.21,.12,0,.21-.11,.21-.23h0c-.01-.12-.12-.21-.24-.21h0Zm-.37-5.28c-.12,.01-.21,.12-.21,.24,0,.12,.1,.21,.22,.2h0s.01,0,.01,0c.12,0,.21-.11,.21-.22,0,0,0,0,0,0,0-.12-.11-.21-.23-.21h0Zm11.12,5.29c-.05-.11-.19-.16-.3-.1-.11,.05-.16,.19-.1,.3,.05,.11,.18,.15,.29,.1h0c.11-.06,.15-.18,.1-.29h0Zm-2.36-4.73c-.05-.11-.19-.16-.3-.1-.11,.05-.16,.19-.1,.3,.05,.11,.18,.15,.29,.1h0c.11-.06,.15-.18,.1-.29h0Zm-2.36-4.74c-.06-.11-.19-.15-.3-.1-.11,.06-.16,.19-.1,.3,.06,.11,.19,.16,.3,.1h0c.11-.06,.15-.19,.1-.3h0Zm-2.37-4.72c-.05-.11-.17-.16-.28-.12-.11,.05-.16,.17-.12,.28,0,0,0,.01,0,.02h0c.05,.12,.18,.16,.29,.11h0c.1-.05,.15-.17,.1-.27,0,0,0,0,0-.01h0Zm11.62,11.76c-.06-.09-.18-.12-.27-.06s-.12,.18-.06,.27h0c.06,.09,.18,.12,.27,.06s.12-.18,.06-.27Zm-2.5-4c-.06-.09-.18-.12-.27-.06-.09,.06-.12,.18-.06,.27,.06,.09,.18,.12,.27,.06h0c.09-.05,.12-.17,.07-.26,0,0,0,0,0,0h0s0,0,0,0Zm-2.5-4.01s-.04-.06-.08-.07h0c-.06-.03-.13-.02-.18,.01-.09,.06-.12,.18-.06,.27h0c.06,.09,.18,.11,.27,.06,.04-.02,.07-.07,.08-.11,.02-.05,.01-.11-.02-.16h0Zm-2.5-4c-.06-.09-.18-.12-.28-.06-.09,.06-.12,.18-.06,.28,.06,.09,.18,.12,.28,.06,0,0,0,0,0,0,.09-.06,.12-.18,.06-.27h0Zm-9.02,1.4c-.11-.02-.21,.04-.23,.15,0,.11,.08,.2,.19,.21,.08,0,.16-.04,.19-.12,.02-.11-.04-.21-.15-.24h0Zm18.39-.68c-.09-.06-.21-.04-.27,.04h0c-.06,.09-.05,.2,.03,.27h.01c.08,.07,.2,.06,.27-.03,0,0,0,0,0,0h0c.06-.1,.04-.22-.05-.28Zm-11.54,12.39c-.11,.02-.18,.12-.16,.23,.02,.1,.12,.18,.22,.16,.11-.02,.18-.12,.17-.22-.02-.11-.12-.18-.23-.17,0,0,0,0,0,0h0Zm-.78-4.65c-.11,.02-.18,.12-.16,.23,.02,.1,.12,.18,.22,.16,.1-.01,.17-.11,.16-.21,0,0,0,0,0,0h0c-.02-.12-.12-.19-.22-.18h0Zm-.78-4.64c-.1,.01-.17,.11-.16,.21,0,0,0,0,0,0h0c.02,.12,.13,.18,.23,.16,.1-.02,.16-.11,.15-.21-.01-.1-.11-.17-.21-.16h-.01Zm10.86-3.39s-.12-.05-.16,0c-.05,.04-.05,.12,0,.16,.04,.05,.12,.05,.16,0h0s.05-.12,0-.16Zm-11.05,4.07c-.06,0-.12,.05-.12,.11,0,.06,.05,.12,.11,.12,.06,0,.12-.05,.12-.11h0c0-.06-.05-.12-.11-.12h0Zm.09-2.78c-.06,0-.11,.04-.12,.1h0c0,.07,.05,.12,.11,.13h0c.06,0,.12-.04,.13-.11,0-.06-.05-.12-.11-.12,0,0,0,0,0,0h0Zm5.48,.44c-.02-.06-.08-.09-.14-.07h-.01c-.06,.02-.09,.08-.07,.14h0c.03,.06,.09,.09,.15,.07,.06-.02,.09-.09,.07-.15h0Zm-10.7-.34c-.05-.03-.12,0-.14,.04,0,0,0,0,0,0,0,0,0,0,0,.01-.03,.06,0,.12,.06,.15,.06,.03,.12,0,.15-.06,.03-.06,0-.12-.06-.15,0,0,0,0,0,0h0Zm1.15-2.53c-.05-.03-.12,0-.14,.05,0,0,0,0,0,.01-.03,.05,0,.12,.05,.15,0,0,0,0,0,0h0c.06,.03,.13,0,.16-.06,.03-.06,0-.12-.05-.15,0,0,0,0,0,0h0Zm17.04,3.88c-.04-.06-.11-.08-.17-.04h0c-.06,.04-.08,.11-.05,.17,0,0,0,0,0,0h0c.04,.07,.11,.09,.17,.05h0c.06-.04,.08-.12,.04-.18h0Zm-1.71-2.68c-.04-.06-.11-.08-.17-.04,0,0,0,0,0,0h0c-.06,.04-.08,.12-.04,.18s.12,.08,.18,.04h0c.06-.04,.08-.12,.04-.18,0,0,0,0,0,0h0s0,0,0,0Zm-11.52,4.96c-.07,0-.14,.03-.16,.1-.02,.07,.03,.14,.1,.15,0,0,0,0,0,0,.06,.02,.13-.02,.15-.08,0,0,0,0,0,0,0,0,0-.01,0-.02,.02-.07-.02-.14-.09-.16,0,0,0,0,0,0h0Zm.68-3.1c-.07,0-.14,.03-.16,.1-.02,.07,.03,.14,.1,.15,0,0,0,0,0,0,.07,.02,.14-.02,.16-.09,0,0,0,0,0,0h0c.01-.07-.03-.14-.1-.16h0Zm5.98,1.69c-.01-.07-.08-.12-.15-.11h-.01c-.07,.02-.11,.08-.1,.15,.01,.07,.08,.12,.15,.11h0s.03-.01,.05-.02c.04-.03,.07-.08,.06-.13h0Zm-.71-3.24c-.07,.02-.12,.09-.11,.16,.02,.07,.09,.11,.16,.1,.07-.01,.11-.08,.1-.15h0c-.01-.07-.08-.12-.15-.11h0Zm5.41,16.3c-.12,.02-.21,.13-.19,.26,.02,.12,.14,.2,.26,.18,.12-.02,.21-.13,.19-.26-.02-.12-.14-.2-.26-.18Zm-.85-5.38c-.12,.02-.21,.14-.19,.26,.02,.12,.14,.21,.26,.19s.21-.14,.19-.26c0,0,0,0,0,0-.02-.12-.14-.2-.26-.18Zm-.84-5.38c-.12,0-.22,.12-.21,.24,0,.12,.12,.22,.24,.21,0,0,.02,0,.02,0h.01c.12-.02,.21-.13,.19-.26-.02-.12-.13-.21-.26-.19,0,0,0,0,0,0h0Zm-.85-5.38c-.12,.02-.2,.13-.19,.25h0c.01,.12,.12,.21,.25,.2,.12-.01,.21-.12,.2-.25,0-.01,0-.02,0-.03-.02-.12-.13-.2-.25-.19h0Zm6.94,.68c-.07-.11-.21-.14-.31-.08s-.14,.21-.08,.31c.07,.11,.21,.14,.31,.08,0,0,0,0,0,0,.11-.07,.14-.21,.08-.31Zm-15.02,12.59c-.12-.03-.24,.04-.27,.16h0c-.03,.12,.04,.24,.16,.28,.12,.02,.24-.05,.28-.17,.03-.12-.04-.25-.17-.28,0,0,0,0,0,0h0Zm1.28-5.29c-.12-.03-.23,.04-.26,.15,0,0,0,0,0,0,0,0,0,0,0,.01-.03,.12,.04,.24,.16,.27,0,0,0,0,0,0h0c.12,.03,.24-.04,.27-.17,0,0,0,0,0,0h0c.03-.12-.04-.23-.15-.26,0,0,0,0,0,0h-.02Zm1.28-5.3c-.12-.02-.24,.06-.26,.19-.02,.11,.05,.22,.16,.26,.12,.03,.24-.04,.27-.16h0c.03-.12-.04-.25-.17-.28,0,0,0,0,0,0h0Zm.74,12.34c-.12-.03-.24,.05-.27,.18-.03,.12,.05,.24,.18,.27,.12,.03,.24-.05,.27-.18,.03-.12-.05-.24-.18-.27,0,0,0,0,0,0Zm1.05-5.32c-.12-.02-.24,.06-.27,.18-.02,.12,.06,.23,.18,.26,.12,.03,.24-.05,.27-.18,0,0,0,0,0,0,.02-.12-.05-.24-.18-.27h0Zm1.04-5.31c-.12-.02-.24,.06-.26,.18-.02,.12,.06,.24,.18,.26h0c.12,.03,.24-.05,.27-.18,0,0,0,0,0,0,.02-.12-.06-.24-.18-.26h0Zm1.05-5.32c-.12-.02-.24,.05-.26,.17,0,0,0,0,0,0h0c-.02,.13,.06,.24,.18,.27,.12,.03,.23-.05,.26-.16,0,0,0,0,0-.01,.02-.12-.05-.24-.17-.26,0,0,0,0,0,0h0Zm6.98,7.7c-.12,.03-.2,.14-.18,.27,.03,.12,.15,.2,.27,.17,.12-.02,.2-.14,.18-.26,0,0,0,0,0,0h0c-.03-.12-.14-.2-.27-.18h0Zm-1.06-5.32c-.12,.03-.2,.14-.18,.27,.02,.12,.14,.2,.26,.18s.2-.14,.18-.26h0c-.02-.13-.14-.2-.26-.18,0,0,0,0,0,0h0Zm-15.09,2.31c-.1-.06-.23-.04-.3,.06h0c-.07,.11-.04,.25,.06,.32,.1,.07,.24,.04,.32-.06,.07-.1,.04-.24-.06-.31h-.01Zm3.01-4.52c-.1-.07-.24-.04-.31,.07-.07,.1-.04,.24,.06,.31,.1,.07,.24,.04,.32-.06,.07-.1,.04-.24-.06-.31h0Zm2.99,6.47c-.08-.04-.18,0-.22,.07,0,0,0,0,0,0v.02c-.04,.09,0,.19,.08,.22,.09,.04,.19,0,.22-.09,.04-.09,0-.19-.09-.22h0Zm1.61-3.76c-.08-.04-.18,0-.22,.08h0c-.04,.09,0,.19,.09,.23s.19,0,.23-.09,0-.19-.09-.23c0,0,0,0,0,0h0Zm6.98,3.4c-.09,0-.17,.07-.17,.16,0,0,0,0,0,0h0c0,.09,.07,.17,.17,.17,.09,0,.17-.07,.17-.17,0-.09-.06-.17-.15-.17h-.01Zm.05-4.09c-.09,0-.16,.07-.17,.16h0c0,.1,.07,.18,.16,.18,0,0,0,0,0,0h0c.09,0,.17-.08,.17-.17,0-.09-.08-.17-.17-.17h0Zm-14.36-1.9c-.06-.07-.16-.07-.23-.01,0,0,0,0,0,0h0c-.07,.06-.07,.17-.01,.23h0c.06,.07,.17,.08,.24,.01,.07-.06,.07-.17,0-.24h0Zm12.85,.54c-.07-.04-.15-.03-.2,.04,0,0,0,0,0,0h0c-.05,.07-.04,.16,.03,.21,0,0,0,0,0,0h.01c.07,.06,.16,.04,.21-.03,0,0,0,0,0,0h0c.05-.07,.03-.16-.04-.21h0s0-.01,0-.01Z" style="fill:#fff; isolation:isolate; opacity:.86;"/><path id="sweater-2" d="M57.14,130.73c-10.47,5.27-22.04,7.97-33.75,7.9-12.92-.07-21.54-3.45-21.54-3.45,0,0-2.47-8.31,3.22-18.18,9.52-16.48,3.39-7.5,10.53-21.77,2.66-5.11,5.93-9.88,9.75-14.2,2.65-2.99,5.55-5.73,8.69-8.2h0c4.73,4.31,8,2.99,8.93,2.46,.04,1.15,.11,2.29,.2,3.44,1.2,15.5,6.81,31.18,10.03,41.06,.18,.56,.36,1.1,.54,1.62,1.94,5.78,3.42,9.31,3.42,9.31Z" style="fill:#f8af38;"/><path id="R_sleeve-3" d="M98.42,125.49s-10.34,11.01-20.43,8.76c-9.21-2.06-10.04,.4-14.39,1.4-.41,.1-.84,.2-1.28,.32-4.99,1.33-16.87,1.42-23.63-13.9-6.56-14.84-8.52-27.64-4.61-49.18,5.6,5.06,9.14,2.23,9.14,2.23-.03-.24-.05-.47-.07-.7,3.87,7.34,8.2,14.42,12.96,21.21,6.5,8.83,8.52,9.8,17.63,7.35,1.51-.4,2.9-.79,4.19-1.15,4.95-1.41,8.08-2.43,8.08-2.43l12.41,26.09Z" style="fill:#fcc979;"/><path id="hair-3" d="M51.47,48.45c-1.22-10.53-11.27-10.98-18.94-9.38-3.26,.54-6.21,2.26-8.27,4.85-3.07,1.13-6.5-.26-7.91-3.22-.14-.28-.57-.03-.42,.25,1.41,2.94,4.72,4.46,7.87,3.62-1.07,1.64-1.68,3.53-1.78,5.48-.05,3.49-1.06,6.9-2.9,9.86-2.41,3.52-2.45,9.74-2.45,9.74,11.7,4.32,26.78-1.7,26.78-1.7,.19-6.99-3.59-9.2-1.77-12.94-.27,.95-.31,1.95-.11,2.92,.72,3.46,4.35,6.16,2.75,9.97-.12,.29,.35,.42,.47,.13,.68-1.68,.56-3.59-.33-5.17-.6-1.29-1.45-2.43-1.97-3.77-.8-2.04-.56-4.34,.65-6.16,5.15-5.81,4.72-9.2,4.72-9.2,1.55,1.28,2.79,2.9,3.61,4.73Z" style="fill:#23286b;"/></g></g></svg>