<?xml version="1.0" encoding="UTF-8"?><svg id="Ebene_1" xmlns="http://www.w3.org/2000/svg" width="114" height="103" xmlns:xlink="http://www.w3.org/1999/xlink" viewBox="0 0 114 103"><defs><clipPath id="clippath"><rect width="114" height="103" style="fill:none;"/></clipPath><linearGradient id="Unbenannter_Verlauf_2" x1="-662.36" y1="438.14" x2="-658.43" y2="438.14" gradientTransform="translate(-26831.67 -25129.36) rotate(-180) scale(42.52 -57.49)" gradientUnits="userSpaceOnUse"><stop offset="0" stop-color="#ffbeb6"/><stop offset="1" stop-color="#f2a19c"/></linearGradient></defs><g id="Gruppe_137"><g style="clip-path:url(#clippath);"><g id="Gruppe_136"><path id="Pfad_306" d="M43.51,1.92c-1.15-.34-2.35-.47-3.54-.39-1.76,.37-3.37,1.26-4.62,2.55-1.67,1.43-3.14,3.08-4.37,4.9-2.85,4.37-3.64,9.8-3.46,15.01s1.25,10.35,1.82,15.54c.59,5.38,.64,10.8,.15,16.19,12.01-1.72,24.22-1.34,36.09,1.14-7.82-11.37-12.42-25.59-9.67-39.12,.82-4.01,2.08-8.75-.68-11.77-1.51-1.65-3.84-2.24-6.02-2.74l-5.69-1.32Z" style="fill:#151a4f;"/><path id="Pfad_307" d="M42.85,23.41c.12,0,.23,.04,.33,.1,.31,.21,.27,.75,.2,1.16-1.32,7.5-.8,15.21,1.52,22.47-4.32-3.22-10.06-.01-15.04-1.29,1.43-3.29,1.1-7.2,1.09-10.91-.02-4.36-.94-10.22,0-14.43,3.51,.47,8.4,2.43,11.91,2.9Z" style="fill:#f2a19c;"/><path id="Pfad_308" d="M51.27,10.34c.25,3.66-.43,7.33-1.98,10.65-1.69,4.11-4.77,7.88-8.98,9.32s-8.55,.9-10.6-3.05c-.85-1.93-1.27-4.02-1.23-6.12,.08-5.03,1.27-10.3,4.95-13.74,2.18-2.04,4.45-4.93,7.43-5.18s7.16,1.07,8.87,3.52c1.39,2.01,1.31,2.16,1.55,4.6Z" style="fill:#ffbeb6;"/><path id="Pfad_309" d="M33.84,22.98c.64,.63,1.44,1.07,2.31,1.27,1.32,.42,2.73,.5,4.09,.24,1.37-.27,2.58-1.08,3.34-2.26-.82,.13-1.65,.14-2.47,.05-3.95-.47-7.11-3.45-9.59-6.56,.11,1.43,.36,2.85,.73,4.24,.33,1.1,.86,2.13,1.58,3.02Z" style="fill:#fff;"/><path id="Pfad_310" d="M55.12,16.79c-4.16-6.66-10.96-11.22-18.7-12.56l-3.86,3.48c8.62,1.18,15.76,7.34,21.1,14.21,1.07-1.51,2.18-3.46,1.3-5.1,.38,2.59-.77-2.47,.16-.02Z" style="fill:#e94a47;"/><path id="Pfad_311" d="M53.09,60.88c-3.34-14-2.82-16.71-2.74-31.1,.02-3.2-1.38-16.09-3.68-20-3.22-5.48-6.12-6.39-9.14-7.45,7.12-5.98,15.93,.55,18.02,4.23s2.38,8.08,2.69,12.31c1.03,13.98,2.8,27.89,5.3,41.68-3.49-.1-6.98,0-10.45,.33Z" style="fill:#23286b;"/><g id="Gruppe_132"><path id="Pfad_312" d="M48.18,25.87h0c.13,0,.23-.1,.23-.23-.09-5.19-1.22-10.31-3.33-15.05-1.43-3.45-4.57-7.16-6.42-8.17-.1-.08-.25-.05-.32,.05-.08,.1-.05,.25,.05,.32,.02,.01,.03,.02,.05,.03,1.74,.95,4.84,4.62,6.21,7.94,2.09,4.69,3.2,9.75,3.29,14.88,0,.13,.1,.23,.23,.23Z" style="fill:#23286b;"/></g><g id="Gruppe_133"><path id="Pfad_313" d="M46.54,23.82s.02,0,.03,0c.13-.01,.22-.13,.2-.25,0,0,0,0,0,0-1.06-7.67-4.05-14.94-8.69-21.14-.08-.1-.23-.11-.32-.03-.1,.08-.11,.22-.04,.32,4.59,6.13,7.55,13.33,8.6,20.91,.02,.11,.11,.2,.23,.2Z" style="fill:#23286b;"/></g><g id="Gruppe_134"><path id="Pfad_314" d="M66.23,59.96h.02c.13,0,.22-.12,.22-.24-.85-14.21-3.06-28.3-6.59-42.09l-.09-.36c-.89-3.6-2.24-9.03-4.83-11.45-.09-.08-.24-.08-.32,.02-.08,.09-.08,.23,.01,.32,2.49,2.32,3.82,7.68,4.69,11.22l.09,.36c3.52,13.76,5.73,27.83,6.58,42.01,0,.12,.11,.22,.23,.22Z" style="fill:#23286b;"/></g><path id="Pfad_315" d="M27.77,38.17c.13,2.57,.27,5.14,.41,7.71,0,.11,.02,.24,.12,.29,.06,.03,.13,.03,.2,.02,2.68-.36,4.23,12.14,6.93,12.1,2.86-.04,6.86-12.58,9.7-12.26,0-1.55-.01-3.1-.02-4.65,0-.55,.06-2,.06-2-.37-.35-.77-.66-1.22-.92-1.73-.8-3.48,2.01-5.29,1.43-.97-.31-1.5-1.5-2.5-1.69-1.4-.27-2.32,1.54-3.68,1.96-.87,.19-1.78,.01-2.52-.5-.75-.45-1.41-1.06-2.19-1.48Z" style="fill:#fff;"/><path id="Pfad_316" d="M87.82,38.75c1.14-4.53,2.99-4.71,6.32-8.05,.54-.54,1.12-1.38,1.72-.92,.59,1.66-3.56,4.48-3.92,8.36,5.65-3.01,11.99-4.5,18.39-4.34,1.72,.12-1.26,1.49-5.17,2.07-3.57,.53-5.74,1.95-8.94,3.61-.19,.55,1.95-.37,2.51-.5,5.33-1.28,9.07-2.3,14.75-2.73,1.67,.2-1.21,3.05-2.75,3.65-3.82,1.49-8.1,2.6-11.91,4.08,1,1.84,11.05-4.37,9.07-1.91-3.6,3.99-8.78,6.17-14.15,5.95-.87-.12-1.75-.07-2.59,.16-1.01,.41-1.79,1.25-2.13,2.29-3.92,14.2-8.22,27.64-11.54,36.66-.98-1.36-4.47-13.98-6.02-14.61,3-8.14,8.52-12.39,11.42-20.56,1.26-3.56,2.86-6.2,3.9-8.85,.43-1.44,.77-2.89,1.03-4.37Z" style="fill:url(#Unbenannter_Verlauf_2);"/><g id="Gruppe_135"><path id="Pfad_317" d="M36.42,11.94c.13,0,.23-.1,.23-.23,0-.13-.1-.23-.23-.23-3.17-.22-5.73-2.65-6.11-5.8-.01-.12-.12-.22-.25-.21-.13,.01-.22,.12-.21,.25,0,0,0,0,0,0,.37,3.4,3.15,6.02,6.56,6.22h0Z" style="fill:#23286b;"/></g><path id="Pfad_318" d="M1.96,103c-2.44-11.27-2.77-27.65-.04-38.1,1-3.84,2.41-7.71,5.08-10.65,1.9-1.95,4.11-3.56,6.55-4.76,4.57-2.45,9.45-4.26,14.5-5.4l6.99,11.68c2.5-3.08,10.03-11.28,10.03-11.28,0,0,15.25,4.37,19.36,10.04,4.78,6.61,5.85,15.16,6.26,23.31,.34,6.75-3.08,17.07-4.71,25.17H1.96Z" style="fill:#fcc979;"/><path id="Pfad_319" d="M59.8,103c-.34-2.14-.47-4.31-.38-6.47,1.15-6.61,5.94-14.51,9.19-20.38,6.28-11.34,7.13-15.55,13.77-25.79,3.19,2.42,6.97,3.94,10.94,4.39-6.73,16.6-14.58,32.72-23.5,48.26h-10.02Z" style="fill:#f8af38;"/></g></g></g></svg>