<?xml version="1.0" encoding="UTF-8"?><svg id="Ebene_1" xmlns="http://www.w3.org/2000/svg" width="370.67" height="274.87" xmlns:xlink="http://www.w3.org/1999/xlink" viewBox="0 0 370.67 274.87"><defs><clipPath id="clippath"><rect x="150.84" y="43.18" width="27.41" height="32.22" transform="translate(66.45 204.09) rotate(-75.7)" style="fill:none;"/></clipPath><clipPath id="clippath-1"><rect x="149.54" y="8.18" width="124.07" height="265.92" style="fill:none;"/></clipPath><linearGradient id="Unbenannter_Verlauf_2" x1="-507.24" y1="537.01" x2="-517.15" y2="547.2" gradientTransform="translate(19595.48 21439.84) scale(39.61 -41.11)" gradientUnits="userSpaceOnUse"><stop offset="0" stop-color="#ffbeb6"/><stop offset="1" stop-color="#f2a19c"/></linearGradient><linearGradient id="Unbenannter_Verlauf_2-2" x1="-245.44" y1="512.19" x2="-231.95" y2="512.19" gradientTransform="translate(5161.79 5100.6) scale(10.4 -9.87)" xlink:href="#Unbenannter_Verlauf_2"/></defs><g id="Gruppe_183"><path id="Pfad_87" d="M370.66,146.98c.3,40.93-11.55,83.51-39.11,105.32-27.57,22.1-70.98,23.27-115.72,22.36-44.6-.76-90.67-3.75-122.8-28.83-32.13-25.08-50.19-72.11-41.12-111.1,8.79-39.01,44.56-69.58,79.24-93.17C165.85,17.68,199.17,1.05,234.82,.05c35.37-1.02,72.93,13.44,97.94,40.3,25.16,26.72,37.61,65.7,37.91,106.63Z" style="fill:#fff;"/><g id="Gruppe_29"><ellipse id="Ellipse_1" cx="95.39" cy="122.19" rx="95.39" ry="94.75" style="fill:#e1f8ed;"/><g id="Gruppe_26"><g id="Gruppe_4"><g id="Gruppe_12"><g style="clip-path:url(#clippath);"><g id="Gruppe_11"><path id="Pfad_10" d="M152.78,45.85l10.36-.89c1.06-.09,2.08,.39,2.68,1.26l13.08,18.53c.78,1.11,.52,2.64-.57,3.43l-8.68,6.18-.99,.12-.9-.81s-6.01-8.36-8.84-12.67c-1.74-2.64-5.43-8.37-7.7-11.91-.62-1.01-.31-2.33,.7-2.95,.26-.16,.56-.27,.87-.3h0Z" style="fill:#012e3c;"/></g></g></g></g><g id="Gruppe_5"><g id="Gruppe_25"><g style="clip-path:url(#clippath-1);"><g id="Gruppe_24"><path id="hand-i6" d="M150.49,69.59s4.44,8.62,12.15,8.18,8.03,1.27,11.83,5.14c1.64,1.67,8.07,7.65,13.11,12.2l1.57-16.48c-7.1-2.1-16.64-5.29-19.21-7.82-4.22-4.16-5.61-9.69-7.35-11.65-1.76-1.98-2.45-2.31-4.06-1.25,0,0-1.03-.83-3.51-3.17-5.09-4.27-6.72,11.33-4.53,14.86Z" style="fill:url(#Unbenannter_Verlauf_2);"/><path id="R_shoe-i6" d="M225.14,251.85l7.96,22.26h-56.21s2.88-5.57,12.49-9.7,18.58-12.56,18.58-12.56h17.18" style="fill:#d4f2e4;"/><path id="L_shoe-i6" d="M265.31,251.83l7.96,22.26h-56.21s2.88-5.57,12.49-9.7,18.58-12.56,18.58-12.56h17.18" style="fill:#d4f2e4;"/><path id="R_trousers-i6" d="M248.57,122.87c-6.77,29.8-7.3,25.62-6.26,46.52s-2.34,13.85-3.39,35.8,.29,32.79-13.79,46.65h-17.18s-1.4-66.94-1.09-85.86c.21-13.24,4.37-26.65,6.76-37.6l2.62-10.98c2.53-.14,5.01-.77,7.29-1.86,5.97,2,16.48,2.43,25.97,2.32-.25,1.63-.56,3.29-.95,5.01Z" style="fill:#012e3c;"/><path id="L_trousers-i6" d="M265.31,251.83h-17.19s-27.09-65.41-28.44-79.62c-1.07-11.29-.61-24.31,.58-36.17l2.37-20.82c7.78,3.09,25.37,2.88,36.72,2.35-.31,6.48-1.52,12.88-3.58,19.03-10.81,32.51-3.38,30.97,.12,40.8,3.52,9.83,5.4,15.84,4.6,25.13s3.23,6.83,5.4,18.85-.59,30.45-.59,30.45Z" style="fill:#365a65;"/><path id="texture-i6" d="M239.95,119.77c-.03-.07-.11-.1-.17-.07-.07,.03-.1,.11-.07,.17,.03,.07,.11,.1,.17,.07,0,0,0,0,0,0h0c.07-.03,.1-.11,.07-.17Zm-13.67-.04c-.07-.02-.14,0-.17,.08,0,0,0,0,0,0-.03,.06,0,.13,.05,.17h.02c.07,.03,.15,0,.18-.07s0-.15-.08-.18h0Zm6.79-.39c-.08,0-.14,.06-.14,.14s.06,.14,.14,.14h0c.08,0,.14-.06,.14-.14s-.06-.14-.14-.14h0Zm24.38,1.05c-.1-.09-.26-.09-.35,.02,0,0,0,0,0,0h0c-.09,.11-.08,.27,.02,.36,0,0,0,0,0,0h0c.1,.09,.26,.09,.35-.02,0,0,0,0,0,0h0c.09-.11,.08-.27-.02-.36,0,0,0,0,0,0h0Zm-18.62,15.49c-.14,.01-.25,.13-.24,.27,0,.13,.12,.24,.26,.23h.01c.14-.01,.24-.13,.24-.27-.01-.14-.13-.24-.27-.23,0,0,0,0,0,0h0Zm-.43-6.12c-.14,.01-.24,.13-.23,.27h0c.01,.14,.13,.24,.27,.23,.14-.01,.24-.13,.23-.27-.02-.14-.14-.25-.28-.24h0Zm-.42-6.12c-.14,.02-.24,.14-.24,.28,0,.13,.12,.24,.26,.23h.01c.14,0,.24-.12,.24-.26,0,0,0,0,0,0,0,0,0,0,0,0,0-.14-.13-.24-.27-.24h0Zm12.88,6.13c-.06-.13-.21-.18-.34-.12-.13,.06-.18,.21-.12,.34,.06,.13,.21,.18,.34,.12h0c.13-.06,.18-.21,.12-.34h0Zm-2.73-5.49c-.06-.13-.21-.18-.34-.12-.13,.06-.18,.21-.12,.34,.06,.13,.21,.18,.34,.12h0c.13-.06,.18-.21,.12-.34h0Zm-2.73-5.49c-.07-.12-.22-.17-.35-.11-.13,.07-.17,.22-.1,.35,.06,.12,.21,.17,.33,.11,.13-.07,.18-.22,.12-.35h0Zm-18.04,12.69c-.13-.04-.27,.02-.31,.15,0,0,0,.01,0,.02-.04,.13,.03,.27,.15,.31h0c.13,.04,.28-.02,.32-.16,.04-.13-.03-.28-.16-.33h0Zm1.95-5.81c-.13-.05-.27,.02-.32,.15h0c-.04,.13,.02,.28,.16,.32,.13,.04,.28-.03,.32-.17,.04-.13-.03-.27-.15-.31h0Zm1.94-5.82c-.13-.04-.28,.02-.32,.16-.05,.13,.02,.27,.15,.32h.01c.13,.05,.27-.02,.31-.15,0,0,0,0,0,0h0c.04-.14-.02-.29-.16-.33h0Zm24.87,7.13c-.07-.11-.21-.14-.31-.07-.11,.07-.14,.21-.07,.31,.07,.11,.21,.14,.31,.07,0,0,0,0,0,0,.1-.07,.14-.21,.07-.31Zm-2.9-4.64c-.07-.11-.21-.14-.31-.07-.11,.07-.14,.21-.07,.31,.07,.11,.21,.14,.31,.07,0,0,0,0,0,0h0c.1-.06,.14-.2,.07-.3h0s0-.01,0-.01Zm-19.93,8.34c-.12-.03-.24,.05-.27,.17,0,0,0,0,0,0h0c-.03,.12,.04,.24,.15,.27,0,0,0,0,0,0h0c.12,.03,.24-.05,.27-.17,.03-.12-.05-.24-.17-.27h0Zm1.23-5.33c-.12-.03-.24,.05-.27,.17,0,0,0,0,0,0h0c-.03,.12,.04,.24,.15,.27,0,0,0,0,0,0h0c.12,.03,.24-.04,.27-.16,.03-.12-.04-.24-.16-.28h0Zm1.23-5.33c-.12-.03-.24,.05-.27,.17,0,0,0,0,0,0h0c-.03,.11,.03,.23,.14,.26,0,0,0,0,0,0h.02c.12,.03,.24-.04,.27-.16,0,0,0,0,0,0h0c.02-.12-.05-.24-.16-.27h0Zm9.16,8.25c-.12,.03-.2,.14-.18,.27,.02,.12,.14,.2,.26,.18,.12-.02,.21-.13,.19-.26-.02-.13-.14-.21-.27-.19h0Zm-.9-5.4c-.12,.03-.2,.14-.18,.27,.02,.12,.14,.2,.26,.18h0c.12-.02,.2-.13,.19-.24,0,0,0,0,0,0h0c-.02-.14-.13-.22-.26-.21h0Zm-19.34,.9c-.1-.07-.24-.05-.32,.05-.07,.1-.05,.24,.05,.31h0c.09,.07,.23,.06,.3-.04h0c.08-.11,.06-.25-.04-.32,0,0,0,0,0,0h0s0,0,0,0Zm3.17-4.46c-.1-.07-.25-.05-.32,.06s-.05,.25,.06,.32c.1,.07,.24,.05,.32-.06,.07-.1,.05-.24-.05-.31h-.01s0,0,0,0Zm15.05-1.04c-.07,0-.13,.06-.14,.13s.06,.13,.13,.14c.07,0,.13-.05,.14-.13,0-.07-.05-.13-.13-.14Zm-.2,1.11c-.08-.01-.16,.04-.18,.12-.02,.08,.03,.16,.11,.18,.07,.02,.15-.02,.18-.1,0,0,0-.01,0-.02,.02-.08-.03-.17-.11-.19h0Zm13.16,13.52c-.14,.02-.24,.16-.22,.3,.02,.14,.16,.24,.3,.21,.14-.02,.24-.16,.22-.3-.02-.14-.16-.24-.3-.21Zm-.99-6.25c-.14,.02-.24,.16-.22,.3,.02,.14,.16,.24,.3,.22,.14-.02,.24-.16,.22-.3h0c-.02-.14-.16-.24-.3-.22Zm-.97-6.24c-.14,.02-.24,.15-.22,.29,.02,.14,.15,.24,.29,.22h.01c.14-.02,.24-.16,.22-.3-.02-.14-.16-.24-.3-.22h0Zm-23.66,6.29c-.12-.09-.28-.06-.37,.05s-.06,.28,.05,.37c.12,.08,.28,.06,.37-.06,.08-.12,.05-.28-.06-.36h0Zm3.71-5.11c-.12-.08-.28-.04-.36,.09-.07,.11-.05,.25,.05,.34h0c.12,.09,.28,.06,.36-.06,.09-.12,.06-.28-.06-.36Zm9.61,7.97c-.14-.03-.28,.05-.31,.19,0,0,0,0,0,0-.04,.14,.05,.28,.18,.32,.14,.03,.28-.06,.32-.19,.03-.14-.05-.29-.19-.32h0Zm1.48-6.14c-.13-.03-.27,.05-.31,.18v.02c-.03,.14,.05,.27,.18,.31h0c.14,.04,.28-.05,.32-.19,0,0,0,0,0,0h0c.04-.13-.04-.27-.18-.31h-.02Zm2.33,8.18c-.14-.03-.28,.06-.31,.2-.03,.14,.06,.28,.2,.31,.14,.03,.28-.06,.31-.2,0,0,0,0,0,0,.03-.14-.06-.28-.2-.31Zm1.22-6.18c-.14-.02-.28,.07-.31,.21-.02,.14,.07,.27,.2,.3,.14,.03,.28-.06,.31-.2,.03-.14-.06-.28-.2-.31h0Zm1.21-6.17c-.14-.02-.27,.07-.3,.21-.02,.13,.06,.26,.2,.29,.14,.03,.28-.06,.31-.2,.02-.14-.07-.27-.21-.3h0Zm9.31,2.76c-.14,.03-.23,.17-.21,.31,.03,.14,.17,.23,.31,.2,.14-.03,.23-.16,.21-.3,0,0,0,0,0,0h0c-.03-.14-.17-.23-.31-.21h0Zm-22.2,1.74c-.12-.08-.27-.05-.35,.07,0,0,0,0,0,0,0,0,0,0,0,0-.08,.12-.05,.28,.07,.36,.12,.08,.28,.05,.37-.07,.08-.12,.05-.28-.07-.36h0Zm3.48-5.25c-.12-.08-.27-.05-.35,.07,0,0,0,0,0,0h0c-.08,.13-.05,.29,.07,.37,.12,.08,.28,.05,.37-.07,.08-.12,.05-.28-.07-.36h0Zm6.95,2.27c-.09-.05-.2-.01-.25,.08h0s0,.02,0,.02c-.05,.1,0,.22,.1,.27s.22,0,.27-.1c.05-.1,0-.22-.1-.27,0,0,0,0,0,0h0Zm9.96-.42c-.11,0-.19,.08-.2,.19h0c0,.11,.09,.19,.19,.2,.11,0,.2-.08,.2-.19,0-.1-.07-.19-.18-.2,0,0,0,0,0,0h-.01Z" style="fill:#fff; isolation:isolate; opacity:.86;"/><path id="sweater-i6" d="M239.89,47.25c7.18,4.98,13.24,11.41,17.8,18.87,7.74,12.56,5.67,17.16,9.86,24.55s10.02,16.5,2.21,26.25c0,0-38.26,3.32-48.55-2.35l8.37-63.82s4.85,.56,10.3-3.5Z" style="fill:#fcc979;"/><path id="R_sleeve-2-i6" d="M229.59,50.74s-5.33,14.16-12.3,23.44-9.88,9.6-19.44,6.79-11.39-3.96-11.39-3.96l-13.62,35.46s7.29,7.42,17.97,5.15,14.23-2.28,19.49-.82,17.8,1.69,25.1-14.44,9.44-30.64,5.05-54.82h0" style="fill:#f8af38;"/><path id="neck-i6" d="M229.75,42.47c.57,2.73,.52,5.56-.16,8.27,0,0,4.68,2.47,10.4-2.94,0,0-1.19-3.1-2.06-6.36h0l-8.18,1.03" style="fill:url(#Unbenannter_Verlauf_2-2);"/><path id="face-i6" d="M222.77,23.26c-.52,1.89-1.43,3.65-2.67,5.16-1.81,1.91-3.24,3.06,.67,5.16,0,0,2.29,12.91,16.51,8.32,0,0,10.88-4.59,9.25-9.08s-8.68-10.8-8.68-10.8l-8.68-2.49-6.39,3.72Z" style="fill:#ffbeb6;"/><path id="lips-i6" d="M220.92,36.53c.53,1.19,1.92,1.73,3.11,1.2,.43-.19,.8-.51,1.05-.91,.19-.3-.25-.66-.44-.35-.49,.86-1.59,1.16-2.45,.67-.33-.19-.59-.47-.74-.81-.16-.33-.68-.12-.53,.2h0Z" style="fill:#1c2868;"/><path id="hair-i6" d="M217.56,8.18c-1.35,9.21,2.35,13.48,6.57,15.43-5.82-1.94-9.24-7.96-7.93-13.95,.06-.3-.4-.43-.46-.13-1.49,6.71,2.73,13.36,9.44,14.86,.69,.15,1.39,.25,2.09,.28,2.19,.49,4.45,.65,6.69,.45,0,0,.96,4.24,2.98,5.92s3.96-.79,5.11,1.85-1.32,4.06-3.96,4.5-2.29,3.88-2.29,3.88c2.03,.88,8.63-.26,13.48-4.85,3.02-3.06,5.1-6.92,5.99-11.12l-37.7-17.12Z" style="fill:#012e3c;"/></g></g></g></g></g><g id="Gruppe_27"><g id="Gruppe_28"><path id="Pfad_11" d="M47.45,74.26h95.86v95.86H47.45V74.26Z" style="fill:none;"/><path id="Rechteck_20" d="M64.33,87.16h22.06c2.2,0,3.98,1.79,3.98,3.98v22.06c0,2.2-1.78,3.98-3.98,3.98h-22.06c-2.2,0-3.98-1.78-3.98-3.98v-22.06c0-2.2,1.78-3.98,3.98-3.98Zm19.71,6.33h-17.36v17.36h17.36v-17.36Z" style="fill:#012e3c;"/><path id="Linie_2" d="M75.41,145.37c-1.75,0-3.16-1.42-3.17-3.16,0-1.75,1.41-3.18,3.17-3.19,1.74,0,3.16,1.39,3.17,3.13,0,0,0,.01,0,.02v.04c0,1.75-1.42,3.16-3.17,3.16Z" style="fill:#012e3c;"/><path id="Rechteck_21" d="M104.37,87.16h22.06c2.2,0,3.98,1.79,3.98,3.98v22.06c0,2.2-1.78,3.98-3.98,3.98h-22.06c-2.2,0-3.98-1.78-3.98-3.98v-22.06c0-2.2,1.78-3.98,3.98-3.98Zm19.71,6.33h-17.36v17.36h17.36v-17.36Z" style="fill:#012e3c;"/><path id="Linie_3" d="M75.41,105.42c-1.75,0-3.16-1.42-3.17-3.16,0-1.75,1.41-3.18,3.17-3.19,1.74,0,3.16,1.39,3.17,3.13,0,0,0,.01,0,.02v.04c0,1.75-1.42,3.16-3.17,3.16Z" style="fill:#012e3c;"/><path id="Rechteck_22" d="M64.33,127.2h22.06c2.2,0,3.98,1.79,3.98,3.98v22.06c0,2.2-1.78,3.98-3.98,3.98h-22.06c-2.2,0-3.98-1.78-3.98-3.98v-22.06c0-2.2,1.78-3.98,3.98-3.98Zm19.71,6.33h-17.36v17.36h17.36v-17.36Z" style="fill:#012e3c;"/><path id="Linie_4" d="M115.36,105.42c-1.75,0-3.16-1.42-3.17-3.16,0-1.75,1.41-3.18,3.17-3.19,1.74,0,3.16,1.39,3.17,3.13,0,0,0,.01,0,.02v.04c0,1.75-1.42,3.16-3.17,3.16Z" style="fill:#012e3c;"/><path id="Linie_5" d="M115,133.53h-11.44c-1.75,0-3.17-1.42-3.17-3.17h0c0-1.75,1.42-3.17,3.17-3.17h11.44c1.75,0,3.17,1.41,3.17,3.16,0,0,0,0,0,0,0,1.75-1.42,3.17-3.16,3.17,0,0,0,0,0,0Z" style="fill:#012e3c;"/><path id="Linie_6" d="M127.34,133.38c-1.75,0-3.16-1.42-3.17-3.16,0-1.75,1.41-3.18,3.17-3.19,1.74,0,3.16,1.39,3.17,3.13,0,0,0,.01,0,.02v.04c0,1.75-1.42,3.16-3.17,3.16Z" style="fill:#012e3c;"/><path id="Linie_7" d="M103.56,144.97c-1.75,0-3.17-1.42-3.17-3.17h0v-11.44c0-1.75,1.42-3.17,3.17-3.17h0c1.75,0,3.17,1.42,3.17,3.16,0,0,0,0,0,0v11.44c0,1.75-1.41,3.17-3.16,3.17,0,0,0,0,0,0Z" style="fill:#012e3c;"/><path id="Linie_8" d="M115,157.23h-11.44c-1.75,0-3.17-1.42-3.17-3.17h0c0-1.75,1.42-3.17,3.17-3.17h11.44c1.75,0,3.17,1.41,3.17,3.16,0,0,0,0,0,0,0,1.75-1.42,3.17-3.16,3.17,0,0,0,0,0,0Z" style="fill:#012e3c;"/><path id="Linie_9" d="M127.25,144.97h-12.26c-1.75,0-3.17-1.42-3.17-3.17h0c0-1.75,1.42-3.17,3.17-3.17h12.26c1.75,0,3.17,1.42,3.17,3.17,0,0,0,0,0,0,0,1.75-1.42,3.17-3.16,3.17,0,0,0,0,0,0Z" style="fill:#012e3c;"/><path id="Linie_10" d="M127.25,157.23c-1.75,0-3.17-1.42-3.17-3.17h0v-12.26c0-1.75,1.42-3.17,3.17-3.17h0c1.75,0,3.17,1.42,3.17,3.16,0,0,0,0,0,0v12.26c0,1.75-1.42,3.17-3.17,3.17h0Z" style="fill:#012e3c;"/></g></g></g></g></svg>