<?xml version="1.0" encoding="UTF-8"?><svg id="Ebene_1" xmlns="http://www.w3.org/2000/svg" width="130.22" height="25.5" viewBox="0 0 130.22 25.5"><g><path d="M49.05,19.5h10v5.5h-15.71V0h15.54V5.5h-9.82v4.14h8.93v5.43h-8.93v4.43Z" style="fill:#012e3c;"/><path d="M87.26,0V25h-5.71V10.46l-6.46,10.61h-.64l-6.46-10.61v14.54h-5.71V0h5.71l6.79,11.11L81.54,0h5.71Z" style="fill:#012e3c;"/><path d="M95.71,17.71c.62,1.67,2.05,2.5,4.29,2.5,1.45,0,2.59-.45,3.43-1.36l4.29,2.46c-1.76,2.45-4.36,3.68-7.79,3.68-3,0-5.4-.89-7.2-2.68-1.8-1.79-2.7-4.04-2.7-6.75s.89-4.93,2.66-6.73c1.77-1.8,4.05-2.7,6.84-2.7,2.59,0,4.76,.9,6.48,2.7,1.73,1.8,2.59,4.04,2.59,6.73,0,.76-.07,1.48-.21,2.14h-12.68Zm-.11-4h7.68c-.52-1.88-1.79-2.82-3.79-2.82s-3.37,.94-3.89,2.82Z" style="fill:#012e3c;"/><path d="M124.86,0h5.36V25h-5.36v-1.68c-1.26,1.45-3.04,2.18-5.32,2.18s-4.37-.91-6.04-2.73c-1.67-1.82-2.5-4.05-2.5-6.7s.83-4.87,2.5-6.7c1.67-1.82,3.68-2.73,6.04-2.73s4.06,.73,5.32,2.18V0Zm-7.32,19.25c.79,.79,1.81,1.18,3.07,1.18s2.29-.39,3.07-1.18c.79-.79,1.18-1.84,1.18-3.18s-.39-2.39-1.18-3.18c-.79-.79-1.81-1.18-3.07-1.18s-2.29,.39-3.07,1.18-1.18,1.85-1.18,3.18,.39,2.39,1.18,3.18Z" style="fill:#012e3c;"/></g><g><polygon points="16.67 8.33 12.5 8.33 8.33 8.33 8.33 12.5 12.5 12.5 12.5 16.67 16.67 16.67 16.67 12.5 16.67 8.33" style="fill:#f8af38;"/><rect y="4.17" width="4.17" height="4.17" style="fill:#f8af38;"/><rect x="12.5" y="20.83" width="4.17" height="4.17" style="fill:#f8af38;"/><polygon points="16.67 20.83 20.83 20.83 20.83 25 25 25 25 16.67 16.67 16.67 16.67 20.83" style="fill:#f8af38;"/><rect x="4.17" y="12.5" width="4.17" height="4.17" style="fill:#f8af38;"/><polygon points="16.67 0 16.67 4.17 20.83 4.17 20.83 8.33 25 8.33 25 0 16.67 0" style="fill:#f8af38;"/><rect x="25" y="8.33" width="8.33" height="8.33" style="fill:#f8af38;"/></g></svg>